<svg xmlns="http://www.w3.org/2000/svg" id="svg1" version="1.1" viewBox="0 0 69.26 69.73">
  
  <defs id="defs1">
    <style id="style1">.cls-1{fill:#41535d;}</style>
  </defs>
  <g style="image-rendering:auto;fill:#ffffff;fill-opacity:1" data-name="Ebene 2" id="Ebene_2">
    <g style="fill:#ffffff;fill-opacity:1" data-name="Layer 6" id="Layer_6">
      <path style="fill:#ffffff;fill-opacity:1" id="path1" d="M 69.06,4.16 A 4.2,4.2 0 0 0 64.83,0 L 36.52,0.2 A 36.8,36.8 0 0 0 0,37.26 l 0.2,28.31 a 4.19,4.19 0 0 0 4.22,4.16 l 28.32,-0.2 A 36.8,36.8 0 0 0 69.26,32.47 Z M 29.41,22.53 a 14.22,14.22 0 0 0 -7.11,1.6 9.32,9.32 0 0 0 -3.5,3.47 14.21,14.21 0 0 0 -1.8,6.75 c 0,0.1 0,0.17 0,0.2 V 52.9 H 11.3 V 34.78 c 0,-0.09 0,-0.24 0,-0.43 a 20.74,20.74 0 0 1 1.15,-6.61 15.59,15.59 0 0 1 7,-8.57 19.87,19.87 0 0 1 9.92,-2.34 z m 8.05,15.23 h -5.7 v -18 h 5.7 z m 20.46,-3 V 52.9 h -5.7 V 34.55 c 0,0 0,-0.1 0,-0.2 A 14.21,14.21 0 0 0 50.45,27.6 9.32,9.32 0 0 0 47,24.13 14.22,14.22 0 0 0 39.89,22.53 v -5.7 a 19.87,19.87 0 0 1 9.92,2.34 15.55,15.55 0 0 1 7,8.57 20.74,20.74 0 0 1 1.15,6.61 c -0.03,0.19 -0.04,0.34 -0.04,0.43 z" class="cls-1"></path>
    </g>
  </g>
</svg>
